<?xml version="1.0" encoding="utf-8"?>
<!-- Generator: Adobe Illustrator 22.0.1, SVG Export Plug-In . SVG Version: 6.00 Build 0)  -->
<svg version="1.1" id="Layer_1" xmlns="http://www.w3.org/2000/svg" xmlns:xlink="http://www.w3.org/1999/xlink" x="0px" y="0px"
	 viewBox="0 0 141.7 141.7" style="enable-background:new 0 0 141.7 141.7;" xml:space="preserve">
<style type="text/css">
	.st0{display:none;}
	.st1{display:inline;fill:#E6A329;}
	.st2{display:inline;fill:#F1BF22;}
	.st3{display:inline;fill:#FFFFFF;}
	.st4{display:inline;fill:#EBEBEB;}
	.st5{display:inline;}
	.st6{clip-path:url(#SVGID_2_);}
	.st7{fill:#010101;}
	.st8{fill:#1072BA;}
	.st9{fill:#2AAAE2;}
	.st10{fill:#B4B4B4;}
	.st11{fill:#E6E6E5;}
	.st12{fill:#FFFFFF;}
	.st13{display:inline;fill:#E44F26;}
	.st14{display:inline;fill:#F1662A;}
	.st15{display:inline;fill:#010101;}
	.st16{fill:#A51E22;}
	.st17{fill:#DC2226;}
	.st18{fill:#F3F3F3;}
	.st19{display:inline;fill:url(#SVGID_3_);}
	.st20{display:inline;fill:#6181B6;}
	.st21{fill:#5D87A1;}
	.st22{fill:#F8971D;}
	.st23{fill:url(#SVGID_4_);}
	.st24{fill:#FFDD00;}
	.st25{clip-path:url(#SVGID_6_);fill:url(#SVGID_7_);}
	.st26{fill:#1D1D1B;}
	.st27{fill:url(#SVGID_8_);}
	.st28{fill:url(#SVGID_9_);}
	.st29{fill:url(#SVGID_10_);}
	.st30{fill:url(#SVGID_11_);}
	.st31{fill:#5CCCF5;}
	.st32{fill:#005A8F;}
	.st33{fill:#0E78BE;}
	.st34{fill:#044A75;}
	.st35{fill:#8ACBF0;}
	.st36{fill:none;}
</style>
<g id="Layer_1_1_" class="st0">
	<polygon class="st1" points="111.1,36.4 70.9,36.4 30.6,36.4 38.1,118.3 70.9,127.6 103.6,118.3 	"/>
	<polygon class="st2" points="70.9,43.1 70.9,120.6 97.4,113.1 103.8,43.1 	"/>
	<polygon class="st3" points="92,53.1 51.2,53.1 48.4,83.8 48.4,83.6 83,83.6 81.9,96.6 70.9,99.7 59.7,96.5 59,88.7 48.8,88.7 
		50.3,104.3 70.9,110.2 91.5,104.3 94.3,73.6 57.6,73.6 58,63.3 83.5,63.3 83.9,69.2 94.2,69.2 	"/>
	<path class="st4" d="M70.9,53.1H51.2l-2.8,30.7l0.1-0.2h22.5v-10H59l0.5-10.3h11.4L70.9,53.1L70.9,53.1z M59,88.7H48.8l1.5,15.7
		l20.6,5.8V99.7l-11.2-3.2L59,88.7z"/>
	<polygon class="st5" points="63,24.3 55.9,24.3 55.9,29.5 63,29.5 66.9,29.5 68.2,29.5 68.2,14.2 63,14.2 	"/>
	<g class="st5">
		<g>
			<defs>
				<rect id="SVGID_1_" width="141.7" height="141.7"/>
			</defs>
			<clipPath id="SVGID_2_">
				<use xlink:href="#SVGID_1_"  style="overflow:visible;"/>
			</clipPath>
			<path class="st6" d="M85.9,14.2H73.4v5.4c1.7,1.7,2.5,2.5,5,4.9c-1.4,0-5,0-5,0v4.9h12.5v-4.9l-5-4.9h5
				C85.9,19.6,85.9,14.2,85.9,14.2z"/>
		</g>
	</g>
</g>
<g id="Layer_2_1_" class="st0">
	<g class="st5">
		<g>
			<polygon class="st7" points="59.7,19.6 59.7,14.4 47.2,14.4 47.2,29.7 59.7,29.7 59.7,24.4 52.5,24.4 52.5,19.6 			"/>
			<polygon class="st7" points="77.4,14.4 64.9,14.4 64.9,19.7 70.2,24.4 64.9,24.4 64.9,29.7 77.4,29.7 77.4,24.6 72.7,19.6 
				77.4,19.6 			"/>
			<polygon class="st7" points="95.6,14.4 83.1,14.4 83.1,19.7 88.1,24.4 83.1,24.4 83.1,29.7 95.6,29.7 95.6,24.6 90.6,19.6 
				95.6,19.6 			"/>
		</g>
		<polygon class="st8" points="38.4,118.8 31.1,36.6 111.7,36.6 104.3,118.8 71.3,128 		"/>
		<polygon class="st9" points="71.5,121 98.1,113.7 104.3,43.5 71.5,43.5 		"/>
		<polygon class="st10" points="47.9,73.7 48.8,83.8 71.5,73.7 71.5,63.6 		"/>
		<polygon class="st11" points="96.6,52.8 71.5,63.6 71.5,73.7 95.7,62.9 		"/>
		<polygon class="st11" points="71.5,100 71.4,100 60.1,97 59.4,89 49.3,89 50.7,104.8 71.4,110.5 71.5,110.5 		"/>
		<polygon class="st12" points="71.5,73.7 71.5,83.8 83.8,83.8 82.7,96.9 71.5,100 71.5,110.5 92.1,104.8 94.8,73.7 		"/>
		<polygon class="st11" points="71.5,73.7 47.9,73.7 48.8,83.8 71.5,83.8 		"/>
		<polygon class="st11" points="71.5,62.9 71.5,52.8 71.4,52.8 46.1,52.8 47,62.9 		"/>
		<polygon class="st12" points="71.5,52.8 71.5,62.8 71.5,62.9 95.7,62.9 96.6,52.8 		"/>
	</g>
</g>
<g id="Layer_3" class="st0">
	<polygon class="st13" points="37.8,119.4 30.4,36.7 111.4,36.7 104,119.4 70.8,128.6 	"/>
	<polygon class="st14" points="70.9,121.5 97.7,114.1 104,43.5 70.9,43.5 	"/>
	<polygon class="st4" points="70.9,74.1 57.5,74.1 56.5,63.7 70.9,63.7 70.9,53.6 70.8,53.6 45.5,53.6 45.7,56.3 48.2,84.3 
		70.9,84.3 	"/>
	<polygon class="st4" points="70.9,100.5 70.8,100.5 59.5,97.4 58.8,89.3 53.3,89.3 48.6,89.3 50.1,105.3 70.8,111 70.9,111 	"/>
	<path class="st15" d="M37.9,14.2h5.2v5.1h4.7v-5.1h5.2v15.4h-5.2v-5.2h-4.7v5.2h-5.2L37.9,14.2L37.9,14.2z"/>
	<path class="st15" d="M59.7,19.3h-4.5v-5.1h14.2v5.1h-4.5v10.3h-5.2L59.7,19.3L59.7,19.3z"/>
	<path class="st15" d="M71.7,14.2H77l3.3,5.4l3.3-5.4H89v15.4h-5.1V22l-3.5,5.5h-0.1L76.7,22v7.6h-5L71.7,14.2L71.7,14.2z"/>
	<path class="st15" d="M91.6,14.2h5.2v10.3h7.2v5.1H91.6V14.2z"/>
	<polygon class="st3" points="70.8,74.1 70.8,84.3 83.3,84.3 82.2,97.4 70.8,100.5 70.8,111 91.6,105.3 91.8,103.5 94.2,76.8 
		94.4,74.1 91.7,74.1 	"/>
	<polygon class="st3" points="70.8,53.6 70.8,59.9 70.8,63.7 70.8,63.7 95.3,63.7 95.3,63.7 95.3,63.7 95.5,61.5 96,56.3 96.3,53.6 
			"/>
</g>
<g id="Layer_4">
	<g>
		<path class="st12" d="M9.1,88c0,0.8,0,1.7-0.7,2.7c-0.6,0.8-1.5,1.4-2.8,1.4c-1,0-1.9-0.4-2.5-1c-1-1-1-2.2-1.1-3.1V49.4
			c0-0.9,0.1-2.1,1.1-3.1c0.6-0.6,1.5-1,2.5-1c1.2,0,2.2,0.6,2.8,1.4c0.7,1,0.7,1.9,0.7,2.7V88L9.1,88z"/>
		<path class="st12" d="M20.8,88c0,0.8,0,1.7-0.7,2.7c-0.6,0.8-1.5,1.4-2.7,1.4c-1,0-1.9-0.4-2.5-1c-1-1-1-2.2-1.1-3.1V49.4
			c0-0.9,0.1-2.1,1.1-3.1c0.6-0.6,1.5-1,2.5-1c1.2,0,2.2,0.6,2.7,1.4c0.7,1,0.7,1.9,0.7,2.7V88L20.8,88z"/>
		<path class="st12" d="M32.5,80.5c0,0.8,0,1.7-0.7,2.7c-0.6,0.8-1.5,1.4-2.7,1.4c-1,0-1.9-0.5-2.5-1c-1-1-1-2.2-1.1-3.1V41.9
			c0-0.9,0.1-2.1,1.1-3.1c0.6-0.6,1.5-1,2.5-1c1.2,0,2.2,0.6,2.7,1.4c0.7,1,0.7,1.9,0.7,2.7V80.5L32.5,80.5z"/>
		<path class="st12" d="M44.2,88c0,0.8,0,1.7-0.7,2.7c-0.6,0.8-1.5,1.4-2.7,1.4c-1,0-1.9-0.4-2.5-1c-1-1-1-2.2-1.1-3.1V49.4
			c0-0.9,0.1-2.1,1.1-3.1c0.6-0.6,1.5-1,2.5-1c1.2,0,2.2,0.6,2.7,1.4c0.7,1,0.7,1.9,0.7,2.7V88L44.2,88z"/>
		<path class="st12" d="M56,80.5c0,0.8,0,1.7-0.7,2.7c-0.6,0.8-1.5,1.4-2.8,1.4c-1,0-1.9-0.5-2.5-1c-1-1-1-2.2-1.1-3.1V41.9
			c0-0.9,0.1-2.1,1.1-3.1c0.6-0.6,1.5-1,2.5-1c1.2,0,2.2,0.6,2.8,1.4c0.7,1,0.7,1.9,0.7,2.7V80.5L56,80.5z"/>
		<path class="st12" d="M67.7,88c0,0.8,0,1.7-0.7,2.7c-0.6,0.8-1.5,1.4-2.7,1.4c-1,0-1.9-0.4-2.5-1c-1-1-1-2.2-1.1-3.1V49.4
			c0-0.9,0.1-2.1,1.1-3.1c0.6-0.6,1.5-1,2.5-1c1.2,0,2.2,0.6,2.7,1.4c0.7,1,0.7,1.9,0.7,2.7V88L67.7,88z"/>
		<path class="st12" d="M79.4,88c0,0.8,0,1.7-0.7,2.7c-0.6,0.8-1.5,1.4-2.7,1.4c-1,0-1.9-0.4-2.5-1c-1-1-1-2.2-1.1-3.1V49.4
			c0-0.9,0.1-2.1,1.1-3.1c0.6-0.6,1.5-1,2.5-1c1.2,0,2.2,0.6,2.7,1.4c0.7,1,0.7,1.9,0.7,2.7V88L79.4,88z"/>
		<path class="st12" d="M136.2,56.9c0.8,0,1.7,0,2.7,0.7c0.8,0.6,1.4,1.5,1.4,2.7c0,1-0.4,1.9-1,2.5c-1,1-2.2,1-3.1,1.1H87.3
			c-0.9,0-2.1-0.1-3.1-1.1c-0.6-0.6-1-1.5-1-2.5c0-1.2,0.6-2.2,1.4-2.7c1-0.7,1.9-0.7,2.7-0.7H136.2L136.2,56.9z"/>
		<path class="st12" d="M136.2,45.2c0.8,0,1.7,0,2.7,0.7c0.8,0.6,1.4,1.5,1.4,2.8c0,1-0.4,1.9-1,2.5c-1,1-2.2,1-3.1,1.1H87.3
			c-0.9,0-2.1-0.1-3.1-1.1c-0.6-0.6-1-1.5-1-2.5c0-1.2,0.6-2.2,1.4-2.8c1-0.7,1.9-0.7,2.7-0.7H136.2L136.2,45.2z"/>
		<path class="st12" d="M136.2,80.4c0.8,0,1.7,0,2.7,0.7c0.8,0.6,1.4,1.5,1.4,2.7c0,1-0.4,1.9-1,2.5c-1,1-2.2,1-3.1,1.1H87.3
			c-0.9,0-2.1-0.1-3.1-1.1c-0.6-0.6-1-1.5-1-2.5c0-1.2,0.6-2.2,1.4-2.7c1-0.7,1.9-0.7,2.7-0.7H136.2L136.2,80.4z"/>
		<path class="st12" d="M136.2,68.6c0.8,0,1.7,0,2.7,0.7c0.8,0.6,1.4,1.5,1.4,2.7c0,1-0.4,1.9-1,2.5c-1,1-2.2,1-3.1,1.1H87.3
			c-0.9,0-2.1-0.1-3.1-1.1c-0.6-0.6-1-1.5-1-2.5c0-1.2,0.6-2.2,1.4-2.7c1-0.7,1.9-0.7,2.7-0.7H136.2L136.2,68.6z"/>
		<path class="st12" d="M25.6,112.7c0,0.9,0,1.9,0.7,2.8c0.6,0.8,1.6,1.3,2.6,1.3c1.9,0,2.7-1.2,3.1-1.9c1.6,1.5,3.2,2,5.4,2
			c5.2,0,8.6-4.1,8.6-10c0-7.2-4.4-10.1-8.3-10.1c-2,0-4,0.7-5.2,2.3v-5.9c0-2.3-1.8-3.5-3.4-3.5c-0.7,0-1.9,0.2-2.7,1.3
			c-0.7,0.9-0.7,1.8-0.8,3.6L25.6,112.7L25.6,112.7z M35.4,101.5c0.9,0,1.9,0.4,2.5,1.5c0.5,0.9,0.8,2.2,0.8,3.7
			c0,1.6-0.3,3.6-1.3,4.6c-0.5,0.5-1.3,0.8-2,0.8c-3.1,0-3.2-4-3.2-5.2c0-1.3,0.1-3.8,1.6-4.9C34.2,101.7,34.8,101.5,35.4,101.5
			L35.4,101.5z"/>
		<path class="st12" d="M78.6,108.5c1.5,0,2.2-1.2,2.2-2.8c0-4.3-2.9-9-9.6-9c-6.8,0-10,4.5-10,10c0,5.1,2.7,10.4,9.9,10.4
			c5.8,0,8.6-3.2,8.6-4.9c0-1.5-1.3-2.6-2.9-2.6c-0.9,0-1.4,0.4-1.8,0.7c-0.5,0.4-0.9,0.9-1.5,1.2c-0.5,0.4-1.2,0.6-2,0.6
			c-3,0-3.4-2.8-3.5-3.6L78.6,108.5L78.6,108.5z M68,104.7c0.2-1.2,0.7-2.2,1.7-2.8c0.4-0.2,0.9-0.3,1.5-0.3c1.7,0,2.4,1.1,2.5,1.4
			c0.3,0.6,0.4,1.1,0.4,1.7L68,104.7L68,104.7z"/>
		<path class="st12" d="M108.4,96.6c-5.3,0-10.4,2.8-10.4,10.1c0,2.9,0.7,5.3,2.5,7.4c0.9,1,2.9,3,7.6,3c5.8,0,10.4-3.2,10.4-10.2
			C118.5,102,115.9,96.6,108.4,96.6L108.4,96.6z M108.3,101.7c1.4,0,2.1,0.8,2.5,1.7c0.4,1,0.7,2.2,0.7,3.7c0,1.6-0.2,4.9-3.2,4.9
			c-3.2,0-3.3-4-3.3-5.2C105,105.6,105.1,101.7,108.3,101.7L108.3,101.7z"/>
		<path class="st12" d="M121.4,100.7c0-0.7,0-1.4,0.4-2.2c0.5-1,1.5-1.7,2.8-1.7c1,0,1.7,0.4,2.3,1c0.8,0.8,0.9,1.6,0.9,2.2
			c0.4-0.5,0.7-1,1.4-1.5c1.3-1.2,3-1.7,4.8-1.7c1.8,0,3.5,0.7,4.7,2.1c1.1,1.3,1.3,2.6,1.3,3.8v10c0,0.8-0.1,1.6-0.6,2.5
			c-0.6,0.9-1.7,1.5-2.8,1.5s-2-0.4-2.7-1.4c-0.7-1-0.8-1.8-0.8-2.7v-7.7c0-0.6,0-1.2-0.3-1.8c-0.4-0.7-1.1-1.2-1.9-1.2
			c-0.6,0-1.1,0.2-1.6,0.6c-0.9,0.8-1,2.3-1,3.8v6.6c0,0.6-0.1,1.6-0.7,2.4c-0.6,0.9-1.7,1.5-2.9,1.5c-1.4,0-2.5-0.9-3-1.8
			c-0.3-0.7-0.4-1.4-0.4-2.1L121.4,100.7L121.4,100.7z"/>
		<path class="st12" d="M56,109.8c0,0.6,0,1.2,0.9,1.4c0.2,0,1.2,0.1,1.4,0.2c0.7,0.2,1.6,1.1,1.6,2.5c0,3.2-3.4,3.2-4,3.2
			c-1,0-1.9-0.1-2.9-0.3c-3.8-1-4-3.8-4-6l0-16.8c0-0.9,0.1-2.1,1.1-3.1c0.6-0.6,1.5-1,2.5-1c1.2,0,2.2,0.6,2.8,1.4
			c0.7,1,0.7,1.9,0.7,2.7L56,109.8L56,109.8z"/>
		<path class="st12" d="M12.1,101.6c1.2,0,2.1,0.8,2.5,1.6c0.4,0.8,0.6,2.4,0.6,3.8c0,3.2-1,4.1-1.5,4.5c-0.7,0.6-1.4,0.6-1.8,0.6
			c-1.5,0-2.4-1.1-2.8-2.2c-0.2-0.4-0.5-1.3-0.5-3c0-1.1,0.2-2.7,0.8-3.8C10.4,101.8,11.6,101.6,12.1,101.6L12.1,101.6z M15.2,99.3
			c-1.3-1.8-3.2-2.4-5.2-2.4c-5.9,0-8.4,5.2-8.4,10.2c0,6.3,3.7,9.8,8,9.8c3.6,0,5-1.9,5.7-2.7c0.1,1.9,1.9,2.6,3.1,2.6
			c1.2,0,2.4-0.6,3-1.8c0.4-0.9,0.5-2.1,0.5-3.2l0-10c0-1.2,0-2.4-0.5-3.3c-0.7-1.3-1.9-1.8-3.1-1.8C17.2,96.6,15.3,97.3,15.2,99.3
			L15.2,99.3z"/>
		<path class="st12" d="M85.6,95.2c0-1,0.1-2,1-3.1c0.3-0.4,1.1-1.1,2.4-1.1c1.7,0,3.4,1.2,3.4,3.7v2.4h1.5c1.5,0,2.4,0.8,2.5,2.3
			c0,0.8-0.3,1.4-0.8,1.8c-0.6,0.6-1.5,0.5-3.2,0.5v8c0,0.6,0,1.2,0.9,1.4c0.2,0,1.2,0.1,1.4,0.2c0.7,0.2,1.6,1.1,1.6,2.5
			c0,3.2-3.4,3.2-4,3.2c-1,0-1.9-0.1-2.9-0.3c-3.8-1-4-3.8-4-6c0-2.3,0.1-6.5,0.1-8.8c-1.2,0-1.7,0-2.1-0.1c-1-0.3-1.4-1.3-1.4-2.3
			c0-0.2,0-0.4,0.1-0.7c0.4-1.4,1.6-1.5,2.2-1.5h1.4L85.6,95.2L85.6,95.2z"/>
	</g>
</g>
<g id="Layer_5" class="st0">
	<g class="st5">
		<polygon class="st10" points="70.7,26.9 27.2,42.2 34.1,99.2 70.7,119.4 107.6,98.9 114.5,42 		"/>
		<polygon class="st16" points="110.1,45.3 70.6,31.8 70.6,114.5 103.7,96.2 		"/>
		<polygon class="st17" points="32.1,45.5 38,96.5 70.6,114.5 70.6,31.8 		"/>
		<path class="st18" d="M81.5,75.8l-10.9,5.1H59.1l-5.4,13.5l-10,0.2l26.9-59.8L81.5,75.8z M80.4,73.3L70.7,54l-8,19h7.9L80.4,73.3z
			"/>
		<polygon class="st10" points="70.6,34.8 70.7,54 79.8,73 70.6,73 70.6,80.9 83.2,80.9 89.1,94.6 98.7,94.8 		"/>
	</g>
</g>
<g id="Layer_6" class="st0">
	
		<radialGradient id="SVGID_3_" cx="17.6357" cy="80.0166" r="87.8238" gradientTransform="matrix(1 0 0 -1 26.52 134.6934)" gradientUnits="userSpaceOnUse">
		<stop  offset="0" style="stop-color:#FFFFFF"/>
		<stop  offset="0.5" style="stop-color:#4C6B97"/>
		<stop  offset="1" style="stop-color:#000000"/>
	</radialGradient>
	<ellipse class="st19" cx="70.9" cy="77.5" rx="66.9" ry="35.2"/>
	<ellipse class="st20" cx="70.9" cy="77.5" rx="64.3" ry="32.6"/>
	<g class="st5">
		<path class="st12" d="M83.9,88l3.2-16.4c0.7-3.7,0.1-6.5-1.8-8.2c-1.8-1.7-5-2.5-9.5-2.5h-5.5l1.6-8.1c0.1-0.3,0-0.6-0.2-0.9
			c-0.2-0.2-0.5-0.4-0.8-0.4h-7.6c-0.5,0-0.9,0.4-1,0.8l-3.4,17.4c-0.3-2-1.1-3.6-2.3-5c-2.2-2.6-5.8-3.9-10.5-3.9H31.2
			c-0.5,0-0.9,0.4-1,0.8L23.3,97c-0.1,0.3,0,0.6,0.2,0.9c0.2,0.2,0.5,0.4,0.8,0.4H32c0.5,0,0.9-0.4,1-0.8l1.7-8.5h5.7
			c3,0,5.5-0.3,7.5-1c2-0.7,3.9-1.8,5.5-3.3c1.3-1.2,2.4-2.6,3.2-4l-1.4,7c-0.1,0.3,0,0.6,0.2,0.9c0.2,0.2,0.5,0.4,0.8,0.4h7.6
			c0.5,0,0.9-0.4,1-0.8l3.8-19.4H74c2.2,0,2.9,0.4,3.1,0.6c0.2,0.2,0.5,0.8,0.1,2.7l-3,15.6c-0.1,0.3,0,0.6,0.2,0.9
			c0.2,0.2,0.5,0.4,0.8,0.4h7.7C83.4,88.9,83.8,88.5,83.9,88z M48.6,74.5c-0.5,2.5-1.4,4.2-2.7,5.2c-1.3,1-3.4,1.5-6.3,1.5h-3.4
			l2.5-12.7h4.4c3.2,0,4.5,0.7,5.1,1.3C48.9,70.6,49,72.2,48.6,74.5z"/>
		<path class="st12" d="M116.5,64.7c-2.2-2.6-5.8-3.9-10.5-3.9H91.2c-0.5,0-0.9,0.4-1,0.8L83.3,97c-0.1,0.3,0,0.6,0.2,0.9
			c0.2,0.2,0.5,0.4,0.8,0.4H92c0.5,0,0.9-0.4,1-0.8l1.7-8.5h5.7c3,0,5.5-0.3,7.5-1c2-0.7,3.9-1.8,5.5-3.3c1.4-1.3,2.5-2.7,3.3-4.2
			c0.8-1.5,1.5-3.2,1.8-5C119.4,70.9,118.7,67.3,116.5,64.7z M108.5,74.5c-0.5,2.5-1.4,4.2-2.7,5.2c-1.3,1-3.4,1.5-6.3,1.5h-3.4
			l2.5-12.7h4.4c3.2,0,4.5,0.7,5.1,1.3C108.8,70.6,109,72.2,108.5,74.5z"/>
	</g>
	<g class="st5">
		<path d="M43.1,67.5c2.9,0,4.9,0.5,5.8,1.6c1,1.1,1.2,2.9,0.7,5.5c-0.5,2.7-1.6,4.7-3.1,5.8c-1.5,1.2-3.8,1.7-6.9,1.7h-4.7
			l2.9-14.8H43.1z M24.4,97.2H32l1.8-9.4h6.6c2.9,0,5.3-0.3,7.2-0.9c1.9-0.6,3.6-1.6,5.1-3.1c1.3-1.2,2.3-2.5,3.1-3.9
			c0.8-1.4,1.4-3,1.7-4.7c0.8-4.2,0.2-7.4-1.8-9.8c-2-2.3-5.3-3.5-9.7-3.5H31.2L24.4,97.2z"/>
		<path d="M63.2,52.6h7.6L69,61.9h6.8c4.3,0,7.2,0.7,8.8,2.2c1.6,1.5,2.1,3.9,1.5,7.2l-3.2,16.4h-7.7l3-15.6c0.3-1.8,0.2-3-0.4-3.6
			c-0.6-0.6-1.9-1-3.8-1h-6.1l-3.9,20.2h-7.6L63.2,52.6z"/>
		<path d="M103,67.5c2.9,0,4.9,0.5,5.8,1.6s1.2,2.9,0.7,5.5c-0.5,2.7-1.6,4.7-3.1,5.8c-1.5,1.2-3.8,1.7-6.9,1.7h-4.7l2.9-14.8H103z
			 M84.3,97.2H92l1.8-9.4h6.6c2.9,0,5.3-0.3,7.2-0.9c1.9-0.6,3.6-1.6,5.1-3.1c1.3-1.2,2.3-2.5,3.1-3.9c0.8-1.4,1.4-3,1.7-4.7
			c0.8-4.2,0.2-7.4-1.8-9.8c-2-2.3-5.3-3.5-9.7-3.5H91.2L84.3,97.2z"/>
	</g>
</g>
<g id="Layer_7" class="st0">
	<g class="st5">
		<path class="st21" d="M35.8,104.9h-5.2c-0.2-8.7-0.7-17-1.5-24.7h0l-7.9,24.7h-3.9L9.4,80.3h0c-0.6,7.4-0.9,15.6-1.1,24.7H3.5
			c0.3-11,1.1-21.3,2.3-30.9h6.4l7.5,22.7h0L27.2,74h6.1C34.7,85.3,35.5,95.6,35.8,104.9"/>
		<path class="st21" d="M58.2,82.1c-2.1,11.4-4.9,19.8-8.3,24.9c-2.7,4-5.6,6-8.8,6c-0.9,0-1.9-0.3-3.2-0.8v-2.8
			c0.6,0.1,1.3,0.1,2.2,0.1c1.5,0,2.7-0.4,3.6-1.2c1.1-1,1.6-2.1,1.6-3.4c0-0.9-0.4-2.6-1.3-5.3l-5.7-17.6h5.1l4.1,13.2
			c0.9,3,1.3,5.1,1.1,6.3c2.2-6,3.8-12.4,4.7-19.5L58.2,82.1L58.2,82.1z"/>
		<polygon class="st22" points="127.1,104.9 112.4,104.9 112.4,74 117.4,74 117.4,101.1 127.1,101.1 		"/>
		<path class="st22" d="M108.6,105.7l-5.7-2.8c0.5-0.4,1-0.9,1.4-1.4c2.4-2.8,3.6-7,3.6-12.6c0-10.2-4-15.4-12-15.4
			c-3.9,0-7,1.3-9.2,3.9c-2.4,2.8-3.6,7-3.6,12.6c0,5.4,1.1,9.4,3.2,12c2,2.3,4.9,3.4,8.8,3.4c1.5,0,2.8-0.2,4-0.5l7.4,4.3
			L108.6,105.7z M90.1,98.7c-1.3-2-1.9-5.3-1.9-9.7c0-7.8,2.4-11.7,7.1-11.7c2.5,0,4.3,0.9,5.5,2.8c1.3,2,1.9,5.2,1.9,9.6
			c0,7.9-2.4,11.8-7.1,11.8C93.1,101.5,91.3,100.6,90.1,98.7"/>
		<path class="st22" d="M80.9,96.4c0,2.6-1,4.8-2.9,6.5c-1.9,1.7-4.5,2.5-7.7,2.5c-3,0-6-1-8.8-2.9l1.3-2.7c2.4,1.2,4.7,1.8,6.6,1.8
			c1.9,0,3.3-0.4,4.4-1.2c1.1-0.8,1.7-2,1.7-3.4c0-1.8-1.3-3.4-3.6-4.7c-2.2-1.2-6.5-3.7-6.5-3.7C63,86.8,61.8,85,61.8,82
			c0-2.5,0.9-4.5,2.6-6.1c1.8-1.5,4-2.3,6.8-2.3c2.9,0,5.5,0.8,7.8,2.3l-1.2,2.7c-2-0.9-4-1.3-6-1.3c-1.6,0-2.8,0.4-3.7,1.1
			c-0.9,0.8-1.4,1.7-1.4,2.9c0,1.8,1.3,3.4,3.7,4.8c2.2,1.2,6.6,3.7,6.6,3.7C79.7,91.5,80.9,93.4,80.9,96.4"/>
		<path class="st21" d="M133.3,63.6c-3-0.1-5.3,0.2-7.2,1c-0.6,0.2-1.5,0.2-1.5,0.9c0.3,0.3,0.3,0.8,0.6,1.2
			c0.4,0.7,1.2,1.8,1.9,2.3c0.8,0.6,1.6,1.2,2.4,1.7c1.5,0.9,3.1,1.4,4.5,2.3c0.8,0.5,1.6,1.2,2.5,1.8c0.4,0.3,0.7,0.8,1.2,1v-0.1
			c-0.3-0.3-0.3-0.8-0.6-1.2c-0.4-0.4-0.7-0.7-1.1-1.1c-1.1-1.5-2.4-2.7-3.9-3.8c-1.2-0.8-3.8-1.9-4.3-3.3c0,0,0,0-0.1-0.1
			c0.8-0.1,1.8-0.4,2.6-0.6c1.3-0.3,2.4-0.3,3.7-0.6c0.6-0.2,1.2-0.3,1.8-0.5v-0.3c-0.7-0.7-1.2-1.6-1.9-2.2c-1.9-1.6-4-3.2-6.2-4.6
			c-1.2-0.7-2.7-1.2-3.9-1.9c-0.4-0.2-1.2-0.3-1.5-0.7c-0.7-0.8-1-1.9-1.5-2.9c-1.1-2.1-2.1-4.3-3.1-6.5c-0.7-1.5-1.1-2.9-1.9-4.3
			c-3.9-6.4-8-10.2-14.5-14c-1.4-0.8-3-1.1-4.8-1.5c-0.9,0-1.9-0.1-2.8-0.1c-0.6-0.3-1.2-1-1.7-1.3C90,22.9,84.5,20,83,23.8
			c-1,2.4,1.5,4.8,2.4,6.1c0.6,0.9,1.5,1.8,1.9,2.8c0.3,0.6,0.3,1.3,0.6,2c0.6,1.6,1.2,3.5,1.9,5c0.4,0.8,0.9,1.6,1.4,2.3
			c0.3,0.4,0.8,0.6,0.9,1.3c-0.5,0.7-0.6,1.9-0.9,2.8c-1.3,4.2-0.8,9.5,1.1,12.6c0.6,0.9,2,3,3.9,2.2c1.7-0.7,1.3-2.8,1.8-4.7
			c0.1-0.5,0-0.7,0.3-1v0.1c0.5,1,1,2.1,1.5,3.1c1.2,1.8,3.2,3.7,4.9,5c0.9,0.7,1.6,1.8,2.7,2.2v-0.1h-0.1c-0.2-0.3-0.6-0.5-0.9-0.7
			c-0.7-0.7-1.4-1.5-1.9-2.2c-1.6-2.1-3-4.4-4.2-6.8c-0.6-1.2-1.1-2.4-1.6-3.6c-0.2-0.4-0.2-1.1-0.6-1.3c-0.6,0.8-1.4,1.5-1.8,2.5
			c-0.7,1.6-0.8,3.6-1,5.6c-0.1,0-0.1,0-0.1,0.1c-1.2-0.3-1.6-1.5-2.1-2.6c-1.1-2.7-1.3-6.9-0.3-10c0.3-0.8,1.4-3.2,0.9-4
			c-0.2-0.7-1-1.1-1.4-1.7c-0.5-0.7-1-1.6-1.3-2.4c-0.9-2.1-1.3-4.4-2.3-6.5c-0.4-1-1.2-2-1.9-2.9c-0.7-1-1.5-1.7-2.1-2.9
			c-0.2-0.4-0.4-1.1-0.2-1.5c0.1-0.3,0.2-0.4,0.5-0.5c0.5-0.4,1.9,0.1,2.4,0.3c1.4,0.6,2.5,1.1,3.7,1.9c0.5,0.4,1.1,1.1,1.8,1.3h0.8
			c1.2,0.3,2.5,0.1,3.7,0.4c2,0.6,3.8,1.6,5.4,2.6c4.9,3.1,8.9,7.5,11.7,12.8c0.4,0.9,0.6,1.6,1,2.5c0.8,1.8,1.8,3.7,2.5,5.5
			c0.8,1.8,1.5,3.5,2.7,5c0.6,0.8,2.8,1.2,3.8,1.6c0.7,0.3,1.9,0.6,2.6,1c1.3,0.8,2.5,1.7,3.7,2.5C131.4,62,133.2,62.9,133.3,63.6"
			/>
		<path class="st21" d="M95.2,31.2c-0.6,0-1.1,0.1-1.5,0.2v0.1h0.1c0.3,0.6,0.8,1,1.2,1.5c0.3,0.6,0.6,1.2,0.9,1.8
			c0,0,0.1-0.1,0.1-0.1c0.5-0.4,0.8-1,0.8-1.9c-0.2-0.3-0.3-0.5-0.4-0.8C96,31.7,95.5,31.5,95.2,31.2"/>
		<path class="st22" d="M136.9,104.9h0.8v-3.8h-1.2l-0.9,2.6l-1-2.6h-1.1v3.8h0.7V102h0l1.1,2.9h0.6l1.1-2.9V104.9z M130.7,104.9
			h0.8v-3.1h1.1v-0.6h-3v0.6h1.1L130.7,104.9L130.7,104.9z"/>
	</g>
</g>
<g id="Layer_8" class="st0">
	<g class="st5">
		
			<linearGradient id="SVGID_4_" gradientUnits="userSpaceOnUse" x1="24.0938" y1="110.5338" x2="117.9082" y2="16.7192" gradientTransform="matrix(1 0 0 -1 0 144)">
			<stop  offset="0.2033" style="stop-color:#F89933"/>
			<stop  offset="1" style="stop-color:#A35731"/>
		</linearGradient>
		<rect x="24.3" y="33.2" class="st23" width="93.3" height="94.3"/>
		<path class="st24" d="M38.6,105.4l13.2-43.2l0.3-7.9h13.2l14.9,51.1h-10l-4.7-13.3H52l-4,13.3H38.6z M63.6,83.4
			c0,0-4.4-16.9-4.6-18.6c-0.2,1.6-4.5,18.6-4.5,18.6H63.6z"/>
		<path class="st24" d="M83.6,58.7c0-1.5,0.5-2.8,1.6-3.9s2.4-1.6,3.9-1.6c1.5,0,2.9,0.5,4,1.6c1.1,1.1,1.7,2.4,1.7,3.9
			s-0.6,2.9-1.7,3.9c-1.1,1.1-2.4,1.6-4,1.6c-1.5,0-2.8-0.6-3.9-1.7S83.6,60.2,83.6,58.7z"/>
		<rect x="83.8" y="67.7" class="st24" width="10.5" height="37.7"/>
	</g>
</g>
<g id="Layer_11" class="st0">
	<g class="st5">
		<g>
			<defs>
				<path id="SVGID_5_" d="M36.9,33.7c-7,0-12.7,5.7-12.7,12.7v69c0,7,5.7,12.7,12.7,12.7h69c7,0,12.7-5.7,12.7-12.7v-69
					c0-7-5.7-12.7-12.7-12.7H36.9z"/>
			</defs>
			<clipPath id="SVGID_6_">
				<use xlink:href="#SVGID_5_"  style="overflow:visible;"/>
			</clipPath>
			
				<linearGradient id="SVGID_7_" gradientUnits="userSpaceOnUse" x1="-77.8389" y1="81.2013" x2="-77.0065" y2="81.2013" gradientTransform="matrix(97.8892 -75.6695 75.6695 97.8892 1502.4712 -13723.8691)">
				<stop  offset="0" style="stop-color:#121134"/>
				<stop  offset="1" style="stop-color:#602D4F"/>
			</linearGradient>
			<polygon class="st25" points="-21.5,69 83.3,-12 164.2,92.8 59.5,173.7 			"/>
		</g>
	</g>
	<g class="st5">
		<path class="st12" d="M46.9,51.3h27.6c15.6,0,19,11.1,19,15.5c0,8.9-5,11.1-7.5,12.1c3.8,1.1,10,4.3,10,15.6
			c0,3.2-0.4,15.9-20.7,15.9H46.9V51.3z M62.1,74.4h8.4c6.2,0,6.8-4.1,6.8-6c0-1.8-1.1-5.8-6.7-5.8h-8.5V74.4z M62.1,100.1h9.6
			c8,0,8.5-5.6,8.5-7.6c0-1.8-0.7-7.5-8.5-7.5h-9.6V100.1z"/>
	</g>
</g>
<g id="Layer_9" class="st0">
	<g class="st5">
		<g>
			<g>
				<path class="st26" d="M73.8,70.2c0,0.2,0,0.3,0,0.5c0,0,0,0.1,0,0.1c0-0.1,0-0.2,0-0.3C73.8,70.4,73.8,70.3,73.8,70.2z"/>
				<path class="st26" d="M52.4,81.1c5.9,0,10.6-4.3,10.6-10.3c0-0.1,0-0.2,0-0.3c-0.2,5.9-4.8,10-10.6,10l-4.1-0.2V81L52.4,81.1z"
					/>
				<path class="st26" d="M57.9,51.3c8.3,1.3,11.1,4.7,12.8,7.5c1.5,2.4,3,4.6,3.1,10.4c0-6.3-1.6-8.6-3.1-11.1
					c-1.7-2.8-4.5-6.2-12.8-7.5c-8.3-1.3-21.8,0-21.8,0v0.6C36.1,51.3,49.6,50,57.9,51.3z"/>
			</g>
			<g>
				
					<linearGradient id="SVGID_8_" gradientUnits="userSpaceOnUse" x1="97.1581" y1="68.2699" x2="96.8286" y2="49.3943" gradientTransform="matrix(1 0 0 -1 0 144)">
					<stop  offset="0" style="stop-color:#1D1D1B"/>
					<stop  offset="8.960000e-02" style="stop-color:#1D1D1B;stop-opacity:0.9104"/>
					<stop  offset="1" style="stop-color:#1D1D1B;stop-opacity:0"/>
				</linearGradient>
				<path class="st27" d="M92.7,79.9c-3.3-1.4-4.8-3-5-4.4c-0.2,1.5,1.1,3.4,5,5c3.8,1.6,13.3,5.3,13.5,14.2c0-0.1,0-0.2,0-0.4
					C106.3,85.3,96.6,81.6,92.7,79.9z"/>
				
					<linearGradient id="SVGID_9_" gradientUnits="userSpaceOnUse" x1="86.6302" y1="49.7547" x2="86.5426" y2="44.738" gradientTransform="matrix(1 0 0 -1 0 144)">
					<stop  offset="0" style="stop-color:#1D1D1B"/>
					<stop  offset="8.960000e-02" style="stop-color:#1D1D1B;stop-opacity:0.9104"/>
					<stop  offset="1" style="stop-color:#1D1D1B;stop-opacity:0"/>
				</linearGradient>
				<path class="st28" d="M90.4,98.7c-4.9,0-13-4.6-13-4.6v0.6c0,0,8.1,4.6,13,4.6c3.6,0,5.7-1.2,5.4-3
					C95.6,97.8,93.6,98.7,90.4,98.7z"/>
				
					<linearGradient id="SVGID_10_" gradientUnits="userSpaceOnUse" x1="90.9476" y1="81.155" x2="90.7074" y2="67.395" gradientTransform="matrix(1 0 0 -1 0 144)">
					<stop  offset="0" style="stop-color:#1D1D1B"/>
					<stop  offset="8.960000e-02" style="stop-color:#1D1D1B;stop-opacity:0.9104"/>
					<stop  offset="1" style="stop-color:#1D1D1B;stop-opacity:0"/>
				</linearGradient>
				<path class="st29" d="M93.2,63.5c6.9-0.1,11,3,11,3v-0.6c0,0-4.2-3.1-11-3C86.3,63,77.3,67,77.3,76.1c0,0.1,0,0.2,0,0.3
					C77.6,67.5,86.4,63.6,93.2,63.5z"/>
			</g>
		</g>
		<g>
			<g>
				<path class="st12" d="M52.4,58.4l-4.1,0.2v0.6l4.1-0.2c5.7,0,10.4,5.4,10.6,11.3c0-0.1,0-0.2,0-0.3C63,63.9,58.2,58.4,52.4,58.4
					z"/>
				<path class="st12" d="M73.8,69c0,0.3,0,0.5,0,0.8c0,0.1,0,0.1,0,0.2C73.8,69.7,73.8,69.4,73.8,69z"/>
				<rect x="36.1" y="106.8" class="st12" width="12.2" height="0.6"/>
				<path class="st12" d="M73.5,73.4c-0.2,1.2-0.5,2.1-0.9,3C69.4,83.6,60.9,88.8,51,88.8c-0.8,0-1.5,0-2.3-0.1
					c-0.3,0.1-0.5,0.1-0.5,0.1v0.6c0,0,0.2,0,0.5-0.1c0.7,0.1,1.5,0.1,2.3,0.1c9.9,0,18.4-5.2,21.5-12.4c0.4-0.8,0.7-1.8,0.9-3
					c0.2-1,0.3-2.1,0.3-3.1c0-0.1,0-0.2,0-0.3C73.8,71.6,73.6,72.5,73.5,73.4z"/>
			</g>
			<g>
				<path class="st12" d="M88.7,90.1c4.7,2.2,6.9,4.4,7.1,6.1c0.3-1.7-1.8-4.2-7.1-6.7c-6.4-3-11.2-5.5-11.3-13.2c0,0.1,0,0.2,0,0.4
					C77.3,84.5,82.2,87,88.7,90.1z"/>
				<path class="st12" d="M104.3,75.2c0,0-6-3.4-11-3.4c-3.3,0-5.8,1.6-5.5,3.6c0.3-1.7,2.6-3,5.5-3c5,0,11,3.4,11,3.4V75.2z"/>
				<path class="st12" d="M90.4,107.6c-9-0.1-13-3.8-13-3.8v0.6c0,0,4,3.8,13,3.8c9,0.1,15.8-4.8,15.8-13.4c0-0.1,0-0.2,0-0.3
					C106.1,103,99.3,107.7,90.4,107.6z"/>
			</g>
		</g>
		
			<linearGradient id="SVGID_11_" gradientUnits="userSpaceOnUse" x1="71.183" y1="16.929" x2="71.183" y2="111.296" gradientTransform="matrix(1 0 0 -1 0 144)">
			<stop  offset="0" style="stop-color:#1B325E"/>
			<stop  offset="1" style="stop-color:#1F5EAC"/>
		</linearGradient>
		<rect x="24" y="32.7" class="st30" width="94.4" height="94.4"/>
		<g>
			<path class="st31" d="M73.8,70.3c0.2-7-1.5-9.3-3.1-11.9c-1.7-2.8-4.5-6.2-12.8-7.5c-8.3-1.3-21.8,0-21.8,0v56.3h12.2v-18
				c0,0,0.2,0,0.5-0.1c0.7,0.1,1.5,0.1,2.3,0.1c9.9,0,18.4-5.2,21.5-12.4c0.4-0.8,0.7-1.8,0.9-3c0.2-1,0.3-2.1,0.3-3.1
				C73.8,70.6,73.8,70.5,73.8,70.3z M52.4,80.8l-4.1-0.2V59.1l4.1-0.2c5.9,0,10.6,5.5,10.6,11.6C63,76.5,58.2,80.8,52.4,80.8z"/>
			<path class="st31" d="M104.3,66.2c0,0-4.2-3.1-11-3c-6.9,0.1-15.9,4.1-15.9,13.2c0,8,4.8,10.5,11.3,13.5c9.8,4.6,8.7,9.1,1.8,9.1
				c-4.9,0-13-4.6-13-4.6v9.9c0,0,4,3.8,13,3.8c9,0.1,15.8-4.8,15.8-13.4c0-9.1-9.7-12.8-13.5-14.5c-8.2-3.5-5-8,0.6-8
				c5,0,11,3.4,11,3.4L104.3,66.2L104.3,66.2z"/>
		</g>
	</g>
</g>
<g id="Layer_10" class="st0">
	<g class="st5">
		<path class="st32" d="M93.6,49.1c-4.9-3.1-9.6-4.3-14.3-7.4c-2.9-2-6.9-6.6-10.3-10.6c-0.7,6.4-2.6,9-4.8,10.9
			c-4.8,3.7-7.7,4.9-11.8,7.1c-3.5,1.8-22.2,13-22.2,37S50.4,128,72.9,128c22.5,0,42-16.3,42-41S96.6,51,93.6,49.1z"/>
		<path class="st12" d="M86,107c1.5,0,3.1,0.1,4.2,0.8c1.1,0.7,1.8,2.4,2.1,3.4c0.4,0.9,0,1.5-0.7,1.9c-0.7,0.4-0.7,0.2-1.4-1
			c-0.7-1.2-1.2-2.4-4.5-2.4c-3.3,0-4.3,1.1-5.9,2.4c-1.6,1.3-2.1,1.8-2.7,1c-0.6-0.7-0.4-1.5,0.7-2.4c1-0.9,2.7-2.4,4.3-3.1
			C83.7,107,84.6,107,86,107L86,107z"/>
		<path class="st12" d="M70.6,117.7c1.9,1.5,4.7,2.7,10.6,2.7s10.2-1.7,12-3.1c0.8-0.7,1.2-0.1,1.3,0.3c0.1,0.4,0.3,0.9-0.4,1.6
			c-0.5,0.5-4.8,3.5-9.8,3.9s-11.8,0.7-16-3c-0.7-0.7-0.5-1.6,0-2c0.5-0.4,0.8-0.7,1.4-0.7S70.3,117.5,70.6,117.7L70.6,117.7z"/>
		<path class="st33" d="M47.7,110.6c7.1-0.1,8.4-1.3,14.6-4.1c33.8-15.1,40-28.9,41.2-32.1c1.2-3.2,3-8.3,1.1-14
			c-0.4-1.1-0.6-2-0.8-2.7c-4.5-5-8.9-7.8-10.3-8.6c-4.8-3.1-9.6-4.3-14.3-7.4c-2.9-1.9-6.9-6.6-10.3-10.6
			c-0.7,6.4-2.5,9.1-4.9,10.9c-4.8,3.7-7.7,4.9-11.8,7.1c-3.5,1.9-22.2,13-22.2,37c0,7.7,2.1,14.7,5.6,20.7l0.9,0
			C38.7,108.6,41.7,110.7,47.7,110.6z"/>
		<path class="st34" d="M93.6,49.1c-4.8-3.1-9.6-4.3-14.3-7.4c-2.9-1.9-6.9-6.6-10.3-10.6c-0.7,6.4-2.5,9.1-4.9,10.9
			c-4.8,3.7-7.7,4.9-11.8,7.1c-3.5,1.9-22.2,13-22.2,37c0,7.7,2.1,14.7,5.6,20.7c7.5,12.8,21.8,21.1,37.1,21.1c22.5,0,42-16.3,42-41
			c0-13.6-5.5-23.1-11-29.2C99.4,52.7,94.9,50,93.6,49.1z M104.9,60c6.1,7.7,9.2,16.7,9.2,26.9c0,5.9-1.1,11.5-3.3,16.6
			c-2.1,4.8-5.1,9.1-9,12.7c-7.6,7.1-17.9,11.1-28.9,11.1c-5.5,0-10.8-1-15.9-3.1c-5-2-9.5-4.9-13.4-8.6
			c-8.2-7.7-12.7-18.2-12.7-29.4c0-10,3.2-18.9,9.6-26.4c4.9-5.7,10.2-8.9,12.2-10c1-0.5,1.9-1,2.8-1.5c2.8-1.4,5.5-2.8,9.1-5.7
			c1.9-1.5,4-3.8,4.9-9.8c3.1,3.7,6.7,7.8,9.4,9.5c2.4,1.6,4.9,2.7,7.3,3.8c2.3,1,4.6,2.1,7,3.6c0,0,0.1,0.1,0.1,0.1
			C100.1,54,103.8,58.5,104.9,60z"/>
		<path class="st35" d="M69.5,33c1.3,3.8,1.1,5.8,1.1,6.6c0,0.8-0.5,3.1-2,4.2c-0.7,0.5-0.8,0.8-0.8,0.9c0,0.4,0.8,0.7,0.8,1.5
			c0,1-0.5,3.1-5.4,8c-4.9,4.9-12,9.3-17.5,12c-5.5,2.7-8.1,2.5-8.9,1.2s0.3-4.2,3.7-8c3.5-3.8,14.4-9.3,14.4-9.3l13.6-9.5l0.7-3.6"
			/>
		<path class="st12" d="M69.5,32.9c-0.8,6.2-2.7,8-5.2,10C60.1,46,56,48,55.1,48.5c-2.4,1.2-11.2,6.1-15.8,13.1
			c-1.4,2.1,0,3,0.3,3.2s3.5,0.6,10.3-3.5c6.8-4.1,9.8-6.5,13.6-10.5c2.1-2.1,2.3-3.4,2.3-3.9c0-0.7-0.5-0.9-1.2-1.1
			c-0.4-0.1-0.5-0.3,0-0.6c0.5-0.3,2.4-1.2,2.9-1.6c0.5-0.4,2.7-1.9,2.8-4.3C70.4,36.7,70.2,35,69.5,32.9L69.5,32.9z"/>
		<path class="st12" d="M48.5,100.7c0.1-7.3,6.9-14.1,15.5-14.2c10.9-0.1,18.5,10.8,24,10.7c4.7-0.1,13.6-9.2,18-9.2
			c4.7,0,6,4.9,6,7.7s-0.9,8.1-3.2,11.4c-2.2,3.3-3.6,4.5-6.2,4.3c-3.4-0.3-10.1-10.7-14.4-10.9c-5.4-0.2-17.2,11.3-26.4,11.3
			c-5.6,0-7.3-0.8-9.1-2.1C49.9,107.8,48.5,104.8,48.5,100.7L48.5,100.7z"/>
		<path class="st36" d="M104.7,60.4c1.9,5.7,0.1,10.8-1.1,14c-1.2,3.2-7.5,17-41.2,32.1c-6.2,2.8-7.6,4-14.6,4.1c-6,0.1-9-2-11-3.7
			l-0.9,0c7.5,12.8,21.8,21,37.1,21c22.5,0,42-16.3,42-41c0-13.6-5.5-23.1-11-29.2C104.1,58.4,104.3,59.3,104.7,60.4z"/>
	</g>
</g>
</svg>
